<svg xmlns="http://www.w3.org/2000/svg" viewBox="0 0 16 16" fill="currentColor"><path d="M8 .2a8 8 0 0 0-2.53 15.6c.4.08.55-.17.55-.38v-1.33c-2.24.49-2.71-1.08-2.71-1.08-.36-.92-.88-1.17-.88-1.17-.72-.49.05-.48.05-.48.8.06 1.22.83 1.22.83.71 1.21 1.86.86 2.31.66.07-.52.28-.86.5-1.06-1.79-.2-3.67-.9-3.67-4a3.1 3.1 0 0 1 .83-2.15 2.9 2.9 0 0 1 .08-2.12s.68-.22 2.22.82a7.7 7.7 0 0 1 4.04 0c1.54-1.04 2.22-.82 2.22-.82.3.67.31 1.45.08 2.12.55.58.83 1.34.83 2.15 0 3.11-1.89 3.79-3.69 3.99.29.25.54.74.54 1.49v2.21c0 .21.15.46.55.38A8 8 0 0 0 8 .2z"/></svg>